<mxfile host="app.diagrams.net" modified="2023-05-22T07:33:07.462Z" agent="Mozilla/5.0 (Windows NT 10.0; Win64; x64) AppleWebKit/537.36 (KHTML, like Gecko) Chrome/112.0.5615.138 Safari/537.36" etag="GeUMAglEQ46DVTJpzc1t" version="21.3.2" type="device">
  <diagram name="Page-1" id="gzf5twS7wkLdhbudSuB0">
    <mxGraphModel dx="1050" dy="548" grid="1" gridSize="10" guides="1" tooltips="1" connect="1" arrows="1" fold="1" page="1" pageScale="1" pageWidth="850" pageHeight="1100" math="0" shadow="0">
      <root>
        <mxCell id="0" />
        <mxCell id="1" parent="0" />
        <mxCell id="ZfOhiTnNsF2f3ChmMLkx-9" style="edgeStyle=orthogonalEdgeStyle;rounded=0;orthogonalLoop=1;jettySize=auto;html=1;exitX=0.5;exitY=1;exitDx=0;exitDy=0;entryX=0.5;entryY=0;entryDx=0;entryDy=0;" parent="1" source="ZfOhiTnNsF2f3ChmMLkx-2" target="ZfOhiTnNsF2f3ChmMLkx-3" edge="1">
          <mxGeometry relative="1" as="geometry" />
        </mxCell>
        <mxCell id="ZfOhiTnNsF2f3ChmMLkx-2" value="Початок рівня" style="rounded=1;whiteSpace=wrap;html=1;" parent="1" vertex="1">
          <mxGeometry x="180" y="90" width="120" height="50" as="geometry" />
        </mxCell>
        <mxCell id="ZfOhiTnNsF2f3ChmMLkx-10" style="edgeStyle=orthogonalEdgeStyle;rounded=0;orthogonalLoop=1;jettySize=auto;html=1;exitX=0.5;exitY=1;exitDx=0;exitDy=0;entryX=0.5;entryY=0;entryDx=0;entryDy=0;" parent="1" source="ZfOhiTnNsF2f3ChmMLkx-3" target="ZfOhiTnNsF2f3ChmMLkx-6" edge="1">
          <mxGeometry relative="1" as="geometry" />
        </mxCell>
        <mxCell id="ZfOhiTnNsF2f3ChmMLkx-3" value="Передісторія, діалог з супротивником" style="rounded=1;whiteSpace=wrap;html=1;arcSize=0;" parent="1" vertex="1">
          <mxGeometry x="165" y="160" width="150" height="50" as="geometry" />
        </mxCell>
        <mxCell id="ZfOhiTnNsF2f3ChmMLkx-4" value="Кінець рівня" style="rounded=1;whiteSpace=wrap;html=1;" parent="1" vertex="1">
          <mxGeometry x="180" y="490" width="120" height="50" as="geometry" />
        </mxCell>
        <mxCell id="ZfOhiTnNsF2f3ChmMLkx-11" style="edgeStyle=orthogonalEdgeStyle;rounded=0;orthogonalLoop=1;jettySize=auto;html=1;exitX=0.5;exitY=1;exitDx=0;exitDy=0;entryX=0.5;entryY=0;entryDx=0;entryDy=0;" parent="1" source="ZfOhiTnNsF2f3ChmMLkx-6" target="ZfOhiTnNsF2f3ChmMLkx-7" edge="1">
          <mxGeometry relative="1" as="geometry" />
        </mxCell>
        <mxCell id="ZfOhiTnNsF2f3ChmMLkx-6" value="5 раундів з питаннями" style="shape=process;whiteSpace=wrap;html=1;backgroundOutline=1;" parent="1" vertex="1">
          <mxGeometry x="180" y="240" width="120" height="60" as="geometry" />
        </mxCell>
        <mxCell id="ZfOhiTnNsF2f3ChmMLkx-13" style="edgeStyle=orthogonalEdgeStyle;rounded=0;orthogonalLoop=1;jettySize=auto;html=1;exitX=1;exitY=0.5;exitDx=0;exitDy=0;entryX=0.5;entryY=0;entryDx=0;entryDy=0;" parent="1" source="ZfOhiTnNsF2f3ChmMLkx-7" target="ZfOhiTnNsF2f3ChmMLkx-12" edge="1">
          <mxGeometry relative="1" as="geometry" />
        </mxCell>
        <mxCell id="JcRo6BfhDNazYD65Mb0s-2" style="edgeStyle=orthogonalEdgeStyle;rounded=0;orthogonalLoop=1;jettySize=auto;html=1;exitX=0;exitY=0.5;exitDx=0;exitDy=0;entryX=0.5;entryY=0;entryDx=0;entryDy=0;" edge="1" parent="1" source="ZfOhiTnNsF2f3ChmMLkx-7" target="JcRo6BfhDNazYD65Mb0s-1">
          <mxGeometry relative="1" as="geometry" />
        </mxCell>
        <mxCell id="ZfOhiTnNsF2f3ChmMLkx-7" value="Перемога?" style="rhombus;whiteSpace=wrap;html=1;" parent="1" vertex="1">
          <mxGeometry x="185" y="320" width="110" height="80" as="geometry" />
        </mxCell>
        <mxCell id="ZfOhiTnNsF2f3ChmMLkx-15" style="edgeStyle=orthogonalEdgeStyle;rounded=0;orthogonalLoop=1;jettySize=auto;html=1;entryX=1;entryY=0.5;entryDx=0;entryDy=0;" parent="1" source="ZfOhiTnNsF2f3ChmMLkx-12" target="ZfOhiTnNsF2f3ChmMLkx-4" edge="1">
          <mxGeometry relative="1" as="geometry" />
        </mxCell>
        <mxCell id="ZfOhiTnNsF2f3ChmMLkx-12" value="Активувати наступний рівень" style="rounded=0;whiteSpace=wrap;html=1;" parent="1" vertex="1">
          <mxGeometry x="290" y="400" width="120" height="60" as="geometry" />
        </mxCell>
        <mxCell id="ZfOhiTnNsF2f3ChmMLkx-14" value="Так" style="text;html=1;strokeColor=none;fillColor=none;align=center;verticalAlign=middle;whiteSpace=wrap;rounded=0;" parent="1" vertex="1">
          <mxGeometry x="294" y="337" width="60" height="30" as="geometry" />
        </mxCell>
        <mxCell id="JcRo6BfhDNazYD65Mb0s-4" style="edgeStyle=orthogonalEdgeStyle;rounded=0;orthogonalLoop=1;jettySize=auto;html=1;exitX=0.5;exitY=1;exitDx=0;exitDy=0;entryX=0;entryY=0.5;entryDx=0;entryDy=0;" edge="1" parent="1" source="JcRo6BfhDNazYD65Mb0s-1" target="ZfOhiTnNsF2f3ChmMLkx-4">
          <mxGeometry relative="1" as="geometry" />
        </mxCell>
        <mxCell id="JcRo6BfhDNazYD65Mb0s-1" value="Пройти ще раз" style="rounded=0;whiteSpace=wrap;html=1;" vertex="1" parent="1">
          <mxGeometry x="60" y="400" width="120" height="60" as="geometry" />
        </mxCell>
        <mxCell id="JcRo6BfhDNazYD65Mb0s-3" value="Ні" style="text;html=1;strokeColor=none;fillColor=none;align=center;verticalAlign=middle;whiteSpace=wrap;rounded=0;" vertex="1" parent="1">
          <mxGeometry x="110" y="337" width="60" height="30" as="geometry" />
        </mxCell>
      </root>
    </mxGraphModel>
  </diagram>
</mxfile>
